<svg width="30" height="30" viewBox="0 0 30 30" fill="none" xmlns="http://www.w3.org/2000/svg">
<g clip-path="url(#clip0_6012_396)">
<path d="M15 30C23.2843 30 30 23.2843 30 15C30 6.71573 23.2843 0 15 0C6.71573 0 0 6.71573 0 15C0 23.2843 6.71573 30 15 30Z" fill="#3C5A9A"/>
<path d="M19.8772 4.60421H16.5543C14.5824 4.60421 12.3891 5.43356 12.3891 8.29192C12.3988 9.28788 12.3891 10.2417 12.3891 11.3152H10.1079V14.9453H12.4597V25.3957H16.7813V14.8763H19.6337L19.8918 11.305H16.7068C16.7068 11.305 16.714 9.71633 16.7068 9.25497C16.7068 8.12541 17.8822 8.1901 17.9529 8.1901C18.5122 8.1901 19.5997 8.19173 19.8788 8.1901V4.60421H19.8772Z" fill="white"/>
</g>
<defs>
<clipPath id="clip0_6012_396">
<rect width="30" height="30" fill="white"/>
</clipPath>
</defs>
</svg>
